<!DOCTYPE svg PUBLIC "-//W3C//DTD SVG 20010904//EN" "http://www.w3.org/TR/2001/REC-SVG-20010904/DTD/svg10.dtd">
<svg version="1.0" xmlns="http://www.w3.org/2000/svg" width="1048px" height="317px" viewBox="0 0 10480 3170" preserveAspectRatio="xMidYMid meet">
<g id="layer101" fill="#010101" stroke="none">
<path d="M185 3149 c-82 -32 -127 -69 -158 -129 -26 -50 -28 -62 -23 -130 4 -67 21 -118 160 -473 86 -219 156 -404 156 -412 0 -8 -9 -29 -20 -47 -49 -80 -14 -195 87 -290 56 -52 100 -68 185 -68 l57 0 19 -52 c15 -41 22 -100 31 -258 6 -113 11 -226 11 -252 0 -48 0 -48 -35 -48 -70 0 -115 -43 -115 -108 0 -17 -6 -32 -14 -35 -32 -13 -49 -68 -43 -139 l6 -68 -67 0 c-139 0 -211 -74 -212 -218 0 -110 33 -172 112 -213 45 -23 134 -25 183 -5 51 21 140 7 168 -27 31 -36 128 -87 166 -87 41 0 88 24 96 50 5 15 15 20 43 20 43 0 425 -29 427 -33 23 -37 82 -105 98 -114 57 -32 134 -6 160 54 12 30 207 1382 207 1441 0 7 14 12 35 12 165 0 213 252 69 367 l-38 31 52 438 c29 242 53 458 52 482 0 82 -30 114 -181 196 -123 66 -152 65 -312 -15 -126 -63 -168 -94 -193 -142 -11 -21 -20 -129 -34 -445 -11 -229 -20 -436 -20 -459 0 -33 -4 -43 -21 -48 -78 -25 -76 -201 4 -261 l23 -18 -17 -89 c-9 -48 -19 -91 -22 -93 -5 -5 -157 106 -174 128 -15 18 -43 161 -43 218 0 33 -48 210 -150 557 -82 279 -150 525 -150 546 0 80 -53 135 -203 208 l-100 49 -106 -1 c-81 0 -118 -5 -156 -20z"/>
<path d="M3711 2414 c-120 -32 -230 -104 -283 -184 -17 -25 -17 -24 -17 38 -1 72 -18 113 -56 130 -17 8 -93 12 -231 12 -218 0 -255 -7 -269 -50 -8 -26 -22 -26 -30 0 -14 43 -51 50 -259 50 -212 0 -238 -5 -262 -51 -21 -42 -21 -1636 0 -1678 24 -46 50 -51 262 -51 225 0 244 5 275 73 10 23 19 34 19 25 0 -31 24 -69 51 -84 40 -20 408 -20 448 0 46 24 51 50 51 269 1 152 3 197 12 182 40 -73 170 -161 283 -191 71 -19 304 -18 380 1 116 31 248 121 290 199 11 20 22 36 26 36 4 0 12 -13 19 -30 18 -43 108 -124 176 -158 112 -57 157 -64 347 -60 191 5 238 16 337 83 46 31 51 32 60 16 5 -10 23 -24 40 -31 29 -12 30 -15 30 -77 0 -73 17 -114 55 -131 18 -8 98 -12 250 -12 190 0 225 -2 225 -15 0 -28 24 -67 51 -81 41 -21 967 -21 1008 0 42 22 51 54 51 192 l0 124 43 -21 c23 -12 65 -28 92 -35 71 -19 304 -18 380 1 116 31 248 121 290 199 11 20 22 36 26 36 4 0 12 -13 19 -30 29 -71 166 -167 289 -204 74 -22 332 -22 416 -1 84 22 168 70 220 126 l45 48 0 -45 c0 -55 20 -96 55 -112 31 -14 452 -17 474 -3 9 6 29 2 55 -10 32 -14 65 -19 151 -19 101 0 115 2 171 29 34 16 64 34 68 39 4 6 36 -6 82 -29 73 -38 78 -39 179 -39 81 0 117 5 159 21 77 28 146 94 182 171 l29 63 3 592 c3 649 4 637 -56 662 -20 8 -94 10 -252 7 -124 -2 -233 -4 -242 -4 -10 0 -124 0 -253 0 -129 0 -244 0 -255 0 -11 0 -126 0 -255 0 -522 0 -783 5 -817 17 -17 6 -78 11 -134 11 -88 0 -114 -4 -167 -25 -82 -33 -131 -75 -163 -137 l-25 -49 -28 38 c-52 72 -137 127 -245 158 -47 14 -89 16 -220 13 -153 -4 -165 -6 -241 -36 -44 -18 -102 -48 -128 -68 -60 -44 -121 -137 -150 -229 -21 -67 -22 -86 -22 -430 0 -363 3 -402 40 -497 6 -15 1 -18 -29 -18 l-36 0 0 590 c0 435 -3 596 -12 615 -23 51 -47 55 -298 55 -251 0 -275 -4 -298 -55 -9 -19 -12 -180 -12 -615 l0 -590 -30 0 -30 0 0 65 c0 35 -5 76 -12 90 -12 27 -54 55 -83 55 -13 0 -15 37 -15 315 0 278 2 315 15 315 29 0 75 30 90 60 21 40 21 269 0 309 -24 48 -53 53 -281 49 -205 -3 -210 -4 -260 -30 -28 -15 -66 -41 -83 -58 -28 -29 -31 -30 -31 -10 0 34 -26 75 -56 89 -20 9 -94 12 -268 11 -155 -1 -251 2 -269 9 -16 6 -75 11 -133 11 -88 0 -114 -4 -167 -25 -82 -33 -131 -75 -163 -137 l-25 -49 -28 38 c-51 71 -136 126 -240 157 -72 21 -322 21 -400 0z m-973 -808 c-5 -6 -7 152 -6 350 l2 359 6 -350 c3 -192 2 -354 -2 -359z m2619 166 c-1 -97 -2 -15 -2 183 0 198 1 278 2 177 2 -101 2 -263 0 -360z m930 -409 c-1 -175 -2 -32 -2 317 0 349 1 492 2 318 2 -175 2 -461 0 -635z m410 0 c-1 -175 -2 -32 -2 317 0 349 1 492 2 318 2 -175 2 -461 0 -635z m2140 409 c-1 -97 -2 -15 -2 183 0 198 1 278 2 177 2 -101 2 -263 0 -360z m533 -525 c3 -2 14 -9 25 -15 11 -6 14 -12 8 -12 -7 0 -22 9 -33 20 -20 20 -20 32 -18 548 l3 527 5 -532 c3 -292 7 -533 10 -536z m497 310 c-1 -138 -2 -25 -2 253 0 278 1 391 2 252 2 -138 2 -366 0 -505z m130 41 c-1 -134 -2 -27 -2 237 0 264 1 373 2 243 2 -130 2 -346 0 -480z m380 -85 c-1 -148 -2 -27 -2 267 0 294 1 415 2 268 2 -148 2 -388 0 -535z m-4470 -66 c-1 -105 -2 -19 -2 193 0 212 1 298 2 192 2 -105 2 -279 0 -385z m-2939 -369 l-2 -353 -6 345 c-5 331 -4 360 6 360 2 0 3 -159 2 -352z"/>
</g>
<g id="layer102" fill="#fb5314" stroke="none">
<path d="M237 3056 c-45 -17 -103 -59 -118 -87 -15 -29 -3 -68 24 -79 12 -5 43 -12 68 -15 26 -3 54 -14 63 -24 22 -24 248 -869 240 -896 -4 -11 -21 -42 -39 -70 -18 -27 -36 -64 -39 -81 -6 -27 -2 -35 28 -62 31 -27 44 -31 120 -37 97 -8 116 -4 116 25 0 27 27 80 41 80 6 0 28 -37 49 -83 32 -69 41 -103 55 -207 29 -231 65 -495 70 -517 5 -22 6 -22 58 -6 114 33 357 168 357 198 0 15 -59 95 -109 148 -20 21 -73 65 -118 98 -45 33 -91 74 -101 92 -24 39 -53 169 -56 252 -2 43 -43 196 -149 556 -83 280 -147 513 -147 536 0 57 -25 83 -132 139 -83 42 -101 48 -168 51 -48 2 -89 -2 -113 -11z"/>
<path d="M1632 2940 c-45 -21 -82 -42 -82 -46 0 -3 11 -19 25 -36 14 -16 25 -35 25 -42 0 -23 -110 -780 -126 -869 -9 -49 -21 -93 -28 -98 -6 -5 -22 -17 -35 -27 -35 -27 -22 -48 54 -83 36 -17 65 -35 65 -39 0 -5 -22 -98 -49 -207 -34 -138 -51 -230 -56 -303 -10 -154 -22 -174 -135 -241 -164 -96 -281 -223 -357 -386 -36 -77 -73 -207 -73 -253 0 -25 4 -28 43 -34 32 -4 530 -46 557 -46 3 0 28 -29 55 -65 26 -36 50 -63 52 -61 3 3 213 1501 213 1523 0 9 19 10 70 6 88 -7 100 1 100 71 0 49 -2 52 -60 107 -48 45 -60 62 -60 86 0 24 78 683 106 894 3 25 2 55 -4 65 -10 18 -188 124 -209 124 -5 0 -46 -18 -91 -40z m-421 -2357 c6 -6 8 -20 4 -32 -5 -18 -14 -21 -55 -21 -27 0 -61 -5 -76 -10 -25 -10 -26 -13 -20 -59 5 -38 3 -51 -10 -61 -20 -17 -28 -6 -49 66 -29 97 9 137 122 132 40 -2 77 -8 84 -15z"/>
</g>
<g id="layer103" fill="#c3bbbb" stroke="none">
<path d="M790 1727 c32 -69 41 -103 55 -207 29 -231 65 -495 70 -517 5 -22 6 -22 58 -6 114 33 357 168 357 198 0 15 -59 95 -109 148 -20 21 -73 65 -118 98 -45 33 -91 74 -101 92 -11 17 -27 68 -36 112 -9 44 -21 99 -27 123 l-12 42 -88 0 -88 0 39 -83z"/>
<path d="M1481 1491 c-34 -140 -52 -238 -57 -306 -9 -149 -21 -169 -134 -236 -164 -96 -281 -223 -357 -386 -36 -77 -73 -207 -73 -253 0 -25 4 -28 43 -34 32 -4 530 -46 557 -46 3 0 28 -29 55 -65 26 -36 50 -63 52 -61 7 7 214 1520 209 1531 -2 7 -19 15 -38 18 -18 3 -72 15 -120 25 l-87 20 -50 -207z m-270 -908 c6 -6 8 -20 4 -32 -5 -18 -14 -21 -55 -21 -27 0 -61 -5 -76 -10 -25 -10 -26 -13 -20 -59 5 -38 3 -51 -10 -61 -20 -17 -28 -6 -49 66 -29 97 9 137 122 132 40 -2 77 -8 84 -15z"/>
<path d="M764 810 c-25 -10 -39 -39 -21 -45 93 -29 88 -29 114 -2 24 24 25 25 7 35 -31 16 -77 22 -100 12z"/>
<path d="M651 647 l-21 -32 40 -18 40 -18 51 35 51 34 -58 12 c-33 6 -64 13 -71 15 -6 2 -21 -10 -32 -28z"/>
<path d="M536 365 c-9 -13 -16 -26 -16 -28 0 -2 42 -9 93 -16 50 -6 102 -14 115 -17 18 -4 23 -1 20 12 -2 12 -27 25 -77 40 -120 37 -117 36 -135 9z"/>
</g>
<g id="layer104" fill="#ffffff" stroke="none">
<path d="M3830 2320 c-131 -13 -208 -48 -280 -126 -87 -95 -99 -162 -99 -544 0 -297 10 -388 55 -470 35 -64 81 -105 159 -141 204 -95 499 -38 606 117 57 83 71 148 77 347 l4 177 -257 0 -257 0 4 193 c3 214 7 227 63 227 61 0 70 -23 73 -191 l3 -149 186 0 186 0 -5 133 c-4 123 -7 138 -35 199 -59 126 -168 210 -291 223 -31 3 -70 7 -87 9 -16 2 -64 0 -105 -4z m130 -947 c0 -121 -11 -147 -63 -151 -32 -3 -38 0 -47 23 -6 14 -10 71 -10 126 l0 99 60 0 60 0 0 -97z"/>
<path d="M4677 2319 c-26 -4 -68 -17 -92 -29 -93 -45 -115 -108 -115 -325 0 -87 5 -167 11 -186 25 -73 73 -105 299 -198 183 -75 175 -66 175 -204 0 -132 -11 -157 -72 -157 -46 0 -53 23 -53 176 l0 124 -181 0 -181 0 4 -132 c4 -111 8 -142 27 -185 62 -141 247 -224 465 -208 177 13 288 72 340 178 38 76 46 198 46 710 l0 427 -190 0 -189 0 -3 -62 -3 -62 -26 40 c-48 73 -152 110 -262 93z m267 -241 c13 -18 16 -56 16 -200 0 -110 -4 -178 -10 -178 -5 0 -30 19 -54 43 -53 50 -66 91 -66 204 0 82 11 131 33 145 24 15 66 8 81 -14z"/>
<path d="M7310 2320 c-131 -13 -208 -48 -280 -126 -87 -95 -99 -162 -99 -544 0 -297 10 -388 55 -470 35 -64 81 -105 159 -141 204 -95 499 -38 606 117 57 83 71 148 77 347 l4 177 -257 0 -257 0 4 193 c3 214 7 227 63 227 61 0 70 -23 73 -191 l3 -149 186 0 186 0 -5 133 c-4 123 -7 138 -35 199 -59 126 -168 210 -291 223 -31 3 -70 7 -87 9 -16 2 -64 0 -105 -4z m130 -947 c0 -121 -11 -147 -63 -151 -32 -3 -38 0 -47 23 -6 14 -10 71 -10 126 l0 99 60 0 60 0 0 -97z"/>
<path d="M8157 2319 c-26 -4 -68 -17 -92 -29 -93 -45 -115 -108 -115 -325 0 -87 5 -167 11 -186 25 -73 73 -105 299 -198 183 -75 175 -66 175 -204 0 -132 -11 -157 -72 -157 -46 0 -53 23 -53 176 l0 124 -181 0 -181 0 4 -132 c4 -111 8 -142 27 -185 62 -141 247 -224 465 -208 177 13 288 72 340 178 38 76 46 198 46 710 l0 427 -190 0 -189 0 -3 -62 -3 -62 -26 40 c-48 73 -152 110 -262 93z m267 -241 c13 -18 16 -56 16 -200 0 -110 -4 -178 -10 -178 -5 0 -30 19 -54 43 -53 50 -66 91 -66 204 0 82 11 131 33 145 24 15 66 8 81 -14z"/>
<path d="M2390 1520 l0 -790 172 2 172 3 112 343 c61 188 114 345 117 349 4 3 7 -152 7 -345 l0 -352 170 0 170 0 0 790 0 790 -179 0 -178 0 -103 -347 c-57 -192 -107 -352 -112 -357 -4 -6 -8 151 -8 347 l0 357 -170 0 -170 0 0 -790z"/>
<path d="M5740 2301 c-91 -7 -129 -22 -172 -68 -50 -53 -51 -59 -56 -530 l-4 -443 -39 0 -39 0 0 -105 0 -105 40 0 40 0 0 -105 0 -105 195 0 195 0 0 105 0 105 55 0 55 0 0 105 0 105 -56 0 -55 0 3 403 c2 324 6 407 17 420 9 12 29 17 63 17 l49 0 -3 103 -3 102 -100 1 c-55 1 -138 -2 -185 -5z"/>
<path d="M6290 1680 l0 -630 -125 0 -125 0 0 -160 0 -160 450 0 450 0 0 160 0 160 -125 0 -125 0 0 630 0 630 -200 0 -200 0 0 -630z"/>
<path d="M8970 1660 l0 -650 194 0 194 0 -5 60 c-3 33 -3 60 0 60 4 0 25 -20 48 -45 57 -61 117 -89 199 -89 91 -1 148 23 208 89 l49 53 36 -43 c40 -47 118 -91 183 -101 105 -16 218 40 264 131 l25 50 3 568 3 567 -185 0 -184 0 -4 -518 c-3 -476 -4 -520 -21 -545 -13 -21 -26 -27 -52 -27 -61 0 -60 -10 -63 568 l-3 522 -189 0 -190 0 0 -523 c0 -457 -2 -525 -16 -545 -19 -28 -67 -29 -94 -2 -19 19 -20 33 -20 545 l0 525 -190 0 -190 0 0 -650z"/>
</g>


</svg>